<svg xmlns="http://www.w3.org/2000/svg" xmlns:xlink="http://www.w3.org/1999/xlink"><defs><clipPath id="clip0"><path fill="#fff" transform="rotate(-90 6 6)" d="M0 0h12v7.4H0z"/></clipPath></defs><symbol id="icon"><g clip-path="url(#clip0)"><path fill-rule="evenodd" clip-rule="evenodd" d="M0 1.4L4.6 6 0 10.6 1.4 12l6-6-6-6L0 1.4z" fill="#2C2E3F" fill-opacity=".5"/></g></symbol><symbol id="logo"><path d="M13.36 0v20.05h-3.29V5.82l-1.1 1.39-2.15 2.76-.09.1-.14-.1-2.15-2.76-1.1-1.43v14.27H0V0h3.34l3.39 4.3L10.07 0h3.3zM8.3 10.07l-.1-.1.1.1z" fill="#0AD9C6"/><path d="M8.45 9.97l-.1.1H8.3l.15-.1zM38.2 5.61l-9.12 6.7 2.12 2.88 9.12-6.7-2.11-2.88z" fill="#0AD9C6"/><path d="M26.67 3a7.04 7.04 0 100 14.09 7.04 7.04 0 000-14.09zm0 10.27a3.22 3.22 0 110-6.45 3.22 3.22 0 010 6.45zM43.64 3a7.04 7.04 0 107.04 7.04A7.1 7.1 0 0043.64 3zm0 10.27a3.22 3.22 0 110-6.45 3.22 3.22 0 010 6.45zM67.6.24v20.04h-3.34V9.88l-2.82-2.67-2.1-2.06v15.13H56V.24h3.34L63.25 4l1 .95V.24h3.35z" fill="#0AD9C6"/><path fill="#0AD9C6" d="M37 3h6v4h-6z"/></symbol><symbol id="mail"><path d="M24.23 0H1.77C.77 0 0 .76 0 1.76v16.48C0 19.24.77 20 1.77 20h22.46c1 0 1.77-.76 1.77-1.76V1.76c0-1-.77-1.76-1.77-1.76zm0 17l-4.67-4.65a.86.86 0 00-1.24 0 .85.85 0 000 1.24l4.67 4.65H3l4.67-4.65a.85.85 0 000-1.24.86.86 0 00-1.24 0L1.77 17V5.7l10.64 8c.18.12.35.18.53.18.18 0 .36-.06.53-.17l10.76-8V17zm0-15.24v1.71l-11.29 8.35L1.77 3.47v-1.7h22.46z" fill="#0AD9C6"/></symbol><symbol id="phone"><path d="M3.46 6.62c-.09-1.2.18-2.37.88-3.32A4.12 4.12 0 016.7 1.7c.8-.25 1.34.05 1.57.94.33 1.34.8 2.68.98 4.1.05.61-.35 1.5-.78 1.95-1.1 1.07-.87 1.85-.04 3.47.26.53.66 1.43 1.46 2.63.83 1.2 1.26 1.86 2.33 1.3 1.18-.59 2.04-.2 2.93.75.6.7 1.27 1.3 1.87 1.98.87 1.03.83 1.74.15 2.47-1.23 1.34-3.26 1.78-4.77.89a9.7 9.7 0 01-2.32-1.88A29.96 29.96 0 013.8 8.76c-.2-.73-.3-1.48-.34-2.14z" stroke="#0AD9C6" stroke-width="2" stroke-miterlimit="10"/></symbol><symbol id="play-icon"><path fill-rule="evenodd" clip-rule="evenodd" d="M.6.4l13 9.1-13 9.1V.4z" fill="#070707"/></symbol><symbol id="Shape"><path fill-rule="evenodd" clip-rule="evenodd" d="M.75 14h22.5v-1H.75v1zm0-6.25h22.5v-1H.75v1zM.75.5v1h22.5v-1H.75z" fill="#000"/></symbol><symbol id="Vector"><path d="M1 23.72L23 1m0 22.72L1 1" stroke="#141517" stroke-opacity=".2" stroke-linecap="round" stroke-linejoin="round"/></symbol></svg>